<?xml version="1.0" encoding="utf-8"?>
<!-- Generator: Adobe Illustrator 25.2.0, SVG Export Plug-In . SVG Version: 6.00 Build 0)  -->
<svg version="1.1" xmlns="http://www.w3.org/2000/svg" xmlns:xlink="http://www.w3.org/1999/xlink" x="0px" y="0px"
	 viewBox="0 0 1361 768" style="enable-background:new 0 0 1361 768;" xml:space="preserve">
<style type="text/css">
	.st0{fill:#2B695E;}
	.st1{fill:#F7BC54;}
	.st2{fill:#CE4A4E;}
	.st3{fill:#0D2C27;}
	.st4{fill:#FFFFFF;}
	.st5{fill:none;}
	.st6{font-family:'Phosphate-Solid';}
	.st7{font-size:192px;}
	.st8{letter-spacing:19;}
	.st9{font-size:36px;}
	.st10{letter-spacing:3;}
</style>
<g id="Слой_1">
	<polygon class="st0" points="285.33,271.83 214,205.17 285.33,205.17 	"/>
	<polyline class="st1" points="356.67,205.17 285.33,271.83 285.33,205.17 	"/>
	<polygon class="st2" points="356.67,271.83 285.33,205.17 356.67,205.17 	"/>
	<polyline class="st0" points="428,205.17 356.67,271.83 356.67,205.17 	"/>
	<rect x="-1" class="st3" width="641" height="212.5"/>
	<rect x="10" y="14" class="st3" width="121" height="121"/>
	<rect x="-1" class="st0" width="121" height="121"/>
	<g>
		<g>
			<path class="st0" d="M39.18,37.23c1.93,0,1.93-3,0-3C37.25,34.23,37.25,37.23,39.18,37.23L39.18,37.23z"/>
		</g>
	</g>
	<polygon class="st1" points="-1,121 -1,0 121,0 	"/>
	<path class="st2" d="M21,22C-1.36,44-1,44-1,44V0h44L21,22z"/>
	<rect x="261" y="37" class="st1" width="141.67" height="141.67"/>
	
		<rect x="261" y="37" transform="matrix(0.7041 0.7101 -0.7101 0.7041 174.7742 -203.7338)" class="st2" width="141.67" height="141.67"/>
	<path class="st0" d="M340.19,94.19"/>
	<path class="st0" d="M345.47,77.56"/>
	
		<rect x="281.74" y="57.74" transform="matrix(0.7071 -0.7071 0.7071 0.7071 20.9441 266.2203)" class="st3" width="100.17" height="100.17"/>
	<rect x="639.5" y="0.5" class="st2" width="61.5" height="173"/>
	<rect x="476" y="30" class="st1" width="199" height="6"/>
	<rect x="476" y="44" class="st1" width="199" height="6"/>
	<rect x="476" y="58" class="st1" width="199" height="6"/>
	<rect x="476" y="72" class="st1" width="199" height="6"/>
	<rect x="606" y="100" class="st1" width="45" height="45"/>
	<rect x="561" y="145" class="st2" width="45" height="45"/>
	<polygon class="st1" points="352.77,157.92 282.11,158.29 295.43,178.66 331.83,178.66 	"/>
	<polygon class="st1" points="310.71,58.11 382.42,57.37 363.31,37 331.83,37 	"/>
	<path class="st1" d="M382.42,87.64"/>
	<polygon class="st1" points="382.42,157.92 382.42,87.64 402.66,107.83 402.66,139.69 	"/>
	<polygon class="st1" points="282.11,57.37 282.11,128.95 261,107.83 261,74.39 	"/>
	<polyline class="st1" points="876.33,0.06 795.62,0.06 876.33,0.06 819.71,53.22 795.62,0.06 	"/>
	<polyline class="st1" points="819.71,53.22 739,53.22 819.71,53.22 739,53.22 795.62,0.06 876.33,0.06 820.09,53.16 876.33,0.06 	
		"/>
	<polyline class="st2" points="877.16,-0.42 820.09,53.16 877.16,-0.42 877.16,74.76 820.09,53.16 	"/>
	<polyline class="st1" points="876.33,0.06 876.33,75.84 876.33,0.06 932.95,53.22 876.33,75.84 	"/>
	<polyline class="st2" points="932.95,53.22 876.33,75.84 932.95,129 932.95,53.22 932.95,129 876.18,75.68 876.33,0.06 
		820.09,53.16 820.09,128.35 876.18,75.68 877.16,74.76 	"/>
	<polyline class="st2" points="932.93,52.96 955.93,-0.63 875.86,-0.63 932.93,52.96 875.86,-0.63 	"/>
	<rect x="1050" y="1" class="st1" width="315" height="767"/>
	<polygon class="st0" points="910.49,244 1114.83,244 1012.66,141.83 	"/>
	<polygon class="st2" points="911.3,346 1115.65,346 1013.47,243.83 	"/>
	<rect x="1050" y="17" class="st3" width="315.01" height="50"/>
	<rect x="1050" y="83" class="st3" width="315" height="50"/>
	<polygon class="st2" points="1100,67 1050,67 1050,17 	"/>
	<polygon class="st0" points="1100,67 1100,17 1150,17 	"/>
	<polyline class="st0" points="1200,67 1150,17 1200,17 	"/>
	<polyline class="st2" points="1200,67 1250,17 1250,67 	"/>
	<polyline class="st2" points="1250,17 1300,67 1250,67 	"/>
	<polyline class="st0" points="1350,17 1300,67 1300,17 	"/>
	<polygon class="st0" points="1100,133 1050,133 1050,83 	"/>
	<polygon class="st2" points="1100,133 1100,83 1150,83 	"/>
	<polyline class="st2" points="1200,133 1150,83 1200,83 	"/>
	<polyline class="st0" points="1200,133 1250,83 1250,133 	"/>
	<polyline class="st0" points="1250,83 1300,133 1250,133 	"/>
	<polyline class="st2" points="1350,83 1300,133 1300,83 	"/>
	<rect x="1300" y="168" class="st3" width="65" height="338"/>
	<rect x="1022" y="400" class="st2" width="303" height="12"/>
	<rect x="1022" y="420" class="st2" width="303" height="12"/>
	<rect x="1022" y="440" class="st2" width="303" height="12"/>
	<rect x="-1" y="295" class="st1" width="128" height="473"/>
	<rect x="588" y="604" class="st3" width="462" height="164"/>
	<rect x="294" y="604" class="st0" width="57" height="164"/>
	<rect y="339" class="st2" width="236" height="9"/>
	<rect y="354" class="st2" width="236" height="9"/>
	<rect y="369" class="st2" width="236" height="9"/>
	<rect y="384" class="st2" width="236" height="9"/>
	<polygon class="st0" points="34.68,263.69 5.46,293.04 34.56,322.65 63.66,293.67 	"/>
	<polygon class="st2" points="93.65,263.8 64.43,293.15 93.53,322.75 122.63,293.77 	"/>
	<rect x="704" y="502" class="st1" width="61.49" height="61.49"/>
	<polygon class="st0" points="704,563.49 704,502 766,502 	"/>
	<path class="st2" d="M715.18,513.18C703.82,524.36,704,524.36,704,524.36V502h22.36L715.18,513.18z"/>
	<rect x="846.34" y="502" class="st1" width="61.49" height="61.49"/>
	<polygon class="st0" points="846.51,502 908,502 908,564 	"/>
	<path class="st2" d="M896.82,513.18C885.64,501.82,885.64,502,885.64,502H908v22.36L896.82,513.18z"/>
	
		<rect x="749.36" y="547.46" transform="matrix(0.7071 0.7071 -0.7071 0.7071 663.2337 -392.9919)" class="st2" width="113.28" height="113.28"/>
	<rect x="766" y="564" class="st1" width="80" height="80"/>
	<rect x="791" y="590" class="st0" width="30" height="30"/>
	<polygon class="st1" points="961.25,604 798.66,768 790.73,768 953.31,604 	"/>
	<polygon class="st1" points="982.35,604 819.77,768 811.83,768 974.41,604 	"/>
	<polygon class="st1" points="1002.35,604 839.77,768 831.83,768 994.41,604 	"/>
	<polygon class="st1" points="1022.09,604 859.51,768 851.57,768 1014.15,604 	"/>
	<polygon class="st0" points="1185.01,768 1050,632.99 914.99,768 	"/>
	<polygon class="st3" points="1077.37,768 1009.91,700.54 942.45,768 	"/>
	<polygon class="st3" points="1157.41,768 1089.95,700.54 1022.49,768 	"/>
	
		<rect x="1033.64" y="669.49" transform="matrix(0.7071 0.7071 -0.7071 0.7071 792.5126 -541.579)" class="st3" width="32.73" height="32.73"/>
	<polygon class="st2" points="1135.05,768 1090.2,723.15 1045.34,768 	"/>
	<polygon class="st2" points="1054.46,768 1009.61,723.15 964.75,768 	"/>
	<polygon class="st1" points="1034.05,768 1009.24,743.19 984.44,768 	"/>
	<polygon class="st1" points="1115.05,768 1090.24,743.19 1065.44,768 	"/>
	<polygon class="st0" points="1214,469.55 1078.99,604.56 1214,739.57 	"/>
	<polygon class="st3" points="1214,577.19 1146.54,644.65 1214,712.11 	"/>
	<polygon class="st3" points="1214,497.15 1146.54,564.61 1214,632.07 	"/>
	
		<rect x="1115.49" y="588.19" transform="matrix(0.7071 -0.7071 0.7071 0.7071 -95.9721 977.4147)" class="st3" width="32.73" height="32.73"/>
	<polygon class="st2" points="1214,519.5 1169.15,564.36 1214,609.21 	"/>
	<polygon class="st2" points="1214,600.1 1169.15,644.95 1214,689.81 	"/>
	<polygon class="st1" points="1214,620.51 1189.19,645.31 1214,670.12 	"/>
	<polygon class="st1" points="1214,539.51 1189.19,564.31 1214,589.12 	"/>
	<rect x="1022" y="380" class="st2" width="303" height="12"/>
	
		<rect x="1029.86" y="584.34" transform="matrix(0.7071 0.7071 -0.7071 0.7071 734.9735 -565.4125)" class="st2" width="40.28" height="40.28"/>
	<rect x="294" y="657" class="st2" width="57" height="57"/>
	<polygon class="st3" points="322.5,685.5 294,657 351,657 	"/>
	<polygon class="st3" points="294,714 322.5,685.5 351,714 	"/>
	
		<rect x="93.75" y="445.87" transform="matrix(0.7071 0.7071 -0.7071 0.7071 376.7969 50.194)" class="st2" width="68.12" height="68.12"/>
	
		<rect x="107.74" y="459.89" transform="matrix(0.7071 0.7071 -0.7071 0.7071 376.8495 50.1884)" class="st3" width="40.2" height="40.2"/>
	<polygon class="st0" points="127.81,431.76 127.84,451.56 99.41,479.99 79.64,479.93 	"/>
	<polygon class="st1" points="156.27,479.99 175.98,479.93 127.81,431.76 127.84,451.56 	"/>
	<polygon class="st2" points="127.84,479.99 113.63,465.78 127.84,451.56 	"/>
	
		<rect x="103.58" y="469.94" transform="matrix(0.7071 -0.7071 0.7071 0.7071 -306.1247 220.9332)" class="st1" width="20.1" height="20.1"/>
	<polyline class="st2" points="127.84,451.56 127.84,479.99 142.06,465.78 	"/>
	<polygon class="st1" points="187.74,463.12 144.62,420 187.74,420 	"/>
	<polygon class="st2" points="143.76,539 186.88,495.88 186.88,539 	"/>
	<path class="st2" d="M-8.35,664.41"/>
	<path class="st2" d="M-8.35,664.41"/>
	<polygon class="st0" points="1214,739.49 1349.01,604.48 1214,469.47 	"/>
	<polygon class="st3" points="1214,631.85 1281.46,564.39 1214,496.93 	"/>
	<polygon class="st3" points="1214,711.89 1281.46,644.43 1214,576.97 	"/>
	
		<rect x="1279.78" y="588.12" transform="matrix(-0.7071 0.7071 -0.7071 -0.7071 2640.0854 115.4023)" class="st3" width="32.73" height="32.73"/>
	<polygon class="st2" points="1214,689.53 1258.85,644.68 1214,599.82 	"/>
	<polygon class="st2" points="1214,608.94 1258.85,564.09 1214,519.23 	"/>
	<polygon class="st1" points="1214,588.53 1238.81,563.72 1214,538.92 	"/>
	<polygon class="st1" points="1214,669.53 1238.81,644.72 1214,619.92 	"/>
	<polygon class="st2" points="-1,616.77 31.62,598.82 65,616.99 97.62,599.04 131,617.2 163.62,599.25 197,617.41 229.62,599.46 
		263,617.83 263,601.44 230.06,583.32 197,601.02 164.06,583.11 131,600.81 98.06,582.89 65,600.6 32.06,582.68 -1,600.39 	"/>
	<polygon class="st3" points="-1,656.45 31.62,638.5 65,656.66 97.62,638.71 131,656.87 163.62,638.92 197,657.08 229.62,639.13 
		263,657.5 263,641.12 230.06,622.99 197,640.7 164.06,622.78 131,640.49 98.06,622.56 65,640.27 32.06,622.35 -1,640.06 	"/>
	<polygon class="st2" points="-1,695.45 31.62,677.5 65,695.66 97.62,677.71 131,695.87 163.62,677.92 197,696.08 229.62,678.13 
		263,696.5 263,680.12 230.06,661.99 197,679.7 164.06,661.78 131,679.49 98.06,661.56 65,679.27 32.06,661.35 -1,679.06 	"/>
	<polygon class="st2" points="-1,734.45 31.62,716.5 65,734.66 97.62,716.71 131,734.87 163.62,716.92 197,735.08 229.62,717.13 
		263,735.5 263,719.12 230.06,700.99 197,718.7 164.06,700.78 131,718.49 98.06,700.56 65,718.27 32.06,700.35 -1,718.06 	"/>
	<polyline class="st3" points="8.9,768 31.62,755.5 65,773.66 97.62,755.71 131,773.87 163.62,755.92 197,774.08 229.62,756.13 
		263,774.5 263,758.12 230.06,739.99 197,757.7 164.06,739.78 131,757.49 98.06,739.56 65,757.27 32.06,739.35 -1,757.06 -1,768 	
		"/>
	<path class="st2" d="M-1,768l0,5.45L-1,768z"/>
	<line class="st2" x1="3.56" y1="768" x2="-1" y2="768"/>
	<line class="st2" x1="8.9" y1="768" x2="3.56" y2="768"/>
	<line class="st2" x1="-1" y1="768" x2="-1" y2="773.45"/>
	<polygon class="st0" points="497.74,659.45 497.74,712.26 471.33,685.85 	"/>
	<polygon class="st0" points="651.63,685.85 625.23,659.45 625.23,712.26 	"/>
	<rect x="516.3" y="641.47" class="st1" width="89.57" height="89.57"/>
	<polygon class="st2" points="587.89,622.11 587.89,641.47 535.08,641.47 535.08,622.11 587,622.11 	"/>
	<rect x="497.74" y="659.45" class="st4" width="18.56" height="52.81"/>
	<polygon class="st1" points="516.3,641.47 516.3,659.45 497.74,659.45 	"/>
	<polygon class="st1" points="497.74,712.26 516.3,712.26 516.3,731.04 	"/>
	<polygon class="st0" points="535.08,712.26 535.08,731.04 516.3,731.04 	"/>
	<rect x="535.08" y="731.04" class="st2" width="52.81" height="18.56"/>
	<polygon class="st0" points="516.3,641.47 535.08,659.45 535.08,641.47 	"/>
	<polygon class="st4" points="516.3,659.45 535.08,659.45 516.3,641.47 	"/>
	<polyline class="st2" points="535.08,712.26 535.08,659.45 516.3,659.45 516.3,712.26 535.08,712.26 516.3,712.26 535.08,712.26 
		535.08,712.26 	"/>
	<rect x="535.08" y="712.26" class="st4" width="52.81" height="18.78"/>
	<polygon class="st0" points="605.86,731.04 587.89,712.26 587.89,731.04 	"/>
	<polygon class="st4" points="535.08,712.26 516.3,712.26 516.3,731.04 	"/>
	<polygon class="st4" points="561.08,686.25 535.08,712.26 535.08,659.45 	"/>
	<path class="st3" d="M605.86,712.26"/>
	<path class="st3" d="M587.89,712.26"/>
	<polygon class="st0" points="587.89,641.47 605.86,641.47 587.89,659.45 	"/>
	<polygon class="st1" points="625.23,659.45 605.86,659.45 605.86,641.47 	"/>
	<rect x="587.89" y="659.45" class="st2" width="17.98" height="52.81"/>
	<polygon class="st4" points="561.08,686.25 587.89,659.45 587.89,712.26 	"/>
	<rect x="535.08" y="641.47" class="st4" width="52.81" height="17.98"/>
	<polygon class="st1" points="625.23,712.26 605.86,712.26 605.86,731.04 	"/>
	<polygon class="st3" points="605.86,659.45 605.86,641.47 587.89,659.45 	"/>
	<rect x="605.86" y="659.45" class="st3" width="19.37" height="52.81"/>
	<polygon class="st3" points="587.89,712.26 605.86,712.26 605.86,731.04 	"/>
	<line class="st3" x1="587" y1="622.11" x2="587.89" y2="622.11"/>
	<polygon class="st3" points="605.86,640.08 605.86,641.47 625.23,659.45 	"/>
	<polygon class="st3" points="625.23,712.26 605.86,731.04 605.86,731.62 	"/>
	<rect x="272" y="431" class="st2" width="564" height="59"/>
	<polygon class="st3" points="1214,496.93 1146.54,564.61 1186.56,604.63 1146.54,644.65 1214,711.89 1281.46,644.43 
		1241.29,604.56 1281.46,564.39 	"/>
	<polygon class="st2" points="1169.15,564.36 1214,519.23 1258.85,564.09 1218.56,604.38 1258.85,644.68 1214,689.53 
		1169.15,644.95 1209.17,604.38 	"/>
	<polygon class="st1" points="1214,538.92 1189.19,564.31 1214,588.53 1238.81,563.72 	"/>
	<polygon class="st1" points="1214,619.92 1189.19,645.31 1214,669.53 1238.81,644.72 	"/>
	<path class="st0" d="M352.77,157.92"/>
	<polygon class="st0" points="382.42,87.08 382.42,107.83 352.69,137.56 331.83,137.56 	"/>
	<polygon class="st0" points="352.48,158 331.73,158 302,128.27 302,107.41 	"/>
	<polygon class="st0" points="282,128.48 282,107.73 311.73,78 332.59,78 	"/>
	<polygon class="st0" points="310.52,58 331.27,58 361,87.73 361,108.59 	"/>
	<polygon class="st1" points="331.53,79.06 302.56,107.97 331.83,137.56 361,108.59 	"/>
	<rect x="270.73" y="259" class="st5" width="615.27" height="187.65"/>
	<text transform="matrix(1 0 0 1 270.729 419.0312)" class="st3 st6 st7 st8">РУСИ</text>
	<path class="st2" d="M1400,83"/>
	<polyline class="st2" points="1365,83 1350,83 1365,98 	"/>
	<polyline class="st0" points="1365.01,17 1350,17 1365.01,32.01 	"/>
	<g>
		<g>
			<path class="st3" d="M143.94,43.62c9.57-12.08,24.58-19.3,40.01-19.11c-0.35-0.85-0.71-1.71-1.06-2.56
				c-17.8,15.11-32.83,33.46-44.17,53.87c-3.17,5.71-6.05,11.59-8.63,17.59c-0.41,0.94-0.09,1.83,0.9,2.2
				c8.32,3.12,16.87-1.58,23.56-6.27c8.15-5.72,16.07-11.8,24.09-17.71c-0.73-0.3-1.47-0.6-2.2-0.9c1.22,4.21,0.23,8.51-1.09,12.57
				c-1.43,4.41-3.08,8.75-4.64,13.12c-3.15,8.82-6.29,17.64-9.44,26.46c-0.39,1.09,0.8,2.15,1.85,1.85
				c9.3-2.7,17.86-7.53,24.99-14.09c1.42-1.31-0.7-3.43-2.12-2.12c-6.74,6.21-14.86,10.77-23.67,13.32
				c0.62,0.62,1.23,1.23,1.85,1.85c3.26-9.13,6.52-18.26,9.77-27.39c1.57-4.41,3.3-8.8,4.65-13.29c1.29-4.24,2-8.73,0.74-13.06
				c-0.25-0.85-1.4-1.49-2.2-0.9c-7.68,5.65-15.31,11.39-23.05,16.96c-6.26,4.51-14.32,9.7-22.29,6.71c0.3,0.73,0.6,1.47,0.9,2.2
				c9.12-21.23,22.05-40.77,38.06-57.44c4.53-4.71,9.3-9.19,14.28-13.42c1.03-0.87,0.16-2.55-1.06-2.56
				c-16.14-0.2-32.1,7.33-42.13,19.99C140.64,43,142.75,45.14,143.94,43.62L143.94,43.62z"/>
		</g>
	</g>
	<polygon class="st1" points="932.93,52.96 932.95,129 876.33,75.84 876.33,0.06 	"/>
	<polyline class="st2" points="876.33,0.06 956.66,0.06 955.93,-0.63 955.63,0.06 932.93,52.96 955.93,-0.63 1013,52.96 
		932.93,52.96 876.33,0.06 	"/>
	<text transform="matrix(1 0 0 1 285.7725 474.9189)" class="st4 st6 st9 st10">Язык программирования </text>
</g>
<g id="Слой_2">
</g>
</svg>
