<?xml version="1.0" encoding="utf-8"?>
<!-- Generator: Adobe Illustrator 25.2.0, SVG Export Plug-In . SVG Version: 6.00 Build 0)  -->
<svg version="1.1" id="Слой_1" xmlns="http://www.w3.org/2000/svg" xmlns:xlink="http://www.w3.org/1999/xlink" x="0px" y="0px"
	 viewBox="0 0 16 18" style="enable-background:new 0 0 16 18;" xml:space="preserve">
<style type="text/css">
	.st0{clip-path:url(#SVGID_2_);fill:#00B956;}
</style>
<g>
	<defs>
		<rect id="SVGID_1_" width="16" height="17"/>
	</defs>
	<clipPath id="SVGID_2_">
		<use xlink:href="#SVGID_1_"  style="overflow:visible;"/>
	</clipPath>
	<path class="st0" d="M7.9,9.72h-3c-0.2,0-0.39,0.08-0.53,0.22c-0.14,0.14-0.22,0.33-0.22,0.53S4.23,10.86,4.37,11
		c0.14,0.14,0.33,0.22,0.53,0.22h3c0.2,0,0.39-0.08,0.53-0.22c0.14-0.14,0.22-0.33,0.22-0.53s-0.08-0.39-0.22-0.53
		C8.29,9.8,8.1,9.72,7.9,9.72z M10.9,2.22h-0.89C9.86,1.78,9.58,1.4,9.2,1.13C8.82,0.86,8.37,0.72,7.9,0.72H6.4
		c-0.46,0-0.92,0.15-1.3,0.41S4.44,1.78,4.29,2.22H3.4c-0.6,0-1.17,0.24-1.59,0.66C1.39,3.3,1.15,3.87,1.15,4.47v9
		c0,0.6,0.24,1.17,0.66,1.59c0.42,0.42,0.99,0.66,1.59,0.66h7.5c0.6,0,1.17-0.24,1.59-0.66c0.42-0.42,0.66-0.99,0.66-1.59v-9
		c0-0.6-0.24-1.17-0.66-1.59C12.07,2.45,11.5,2.22,10.9,2.22z M5.65,2.97c0-0.2,0.08-0.39,0.22-0.53C6.01,2.3,6.21,2.22,6.4,2.22
		h1.5c0.2,0,0.39,0.08,0.53,0.22c0.14,0.14,0.22,0.33,0.22,0.53v0.75h-3V2.97z M11.65,13.47c0,0.2-0.08,0.39-0.22,0.53
		c-0.14,0.14-0.33,0.22-0.53,0.22H3.4c-0.2,0-0.39-0.08-0.53-0.22c-0.14-0.14-0.22-0.33-0.22-0.53v-9c0-0.2,0.08-0.39,0.22-0.53
		C3.01,3.8,3.21,3.72,3.4,3.72h0.75v0.75c0,0.2,0.08,0.39,0.22,0.53C4.51,5.14,4.71,5.22,4.9,5.22h4.5c0.2,0,0.39-0.08,0.53-0.22
		c0.14-0.14,0.22-0.33,0.22-0.53V3.72h0.75c0.2,0,0.39,0.08,0.53,0.22c0.14,0.14,0.22,0.33,0.22,0.53V13.47z M9.4,6.72H4.9
		c-0.2,0-0.39,0.08-0.53,0.22C4.23,7.08,4.15,7.27,4.15,7.47S4.23,7.86,4.37,8C4.51,8.14,4.71,8.22,4.9,8.22h4.5
		c0.2,0,0.39-0.08,0.53-0.22c0.14-0.14,0.22-0.33,0.22-0.53s-0.08-0.39-0.22-0.53C9.79,6.8,9.6,6.72,9.4,6.72z"/>
</g>
</svg>
