<svg id="Слой_1" data-name="Слой 1" xmlns="http://www.w3.org/2000/svg" viewBox="0 0 60.75 19.94"><defs><style>.cls-1{fill:#ce4a4e;}.cls-2{fill:#0d2c27;}.cls-3{fill:#2b695e;}.cls-4{fill:#f7bc54;}.cls-5{font-size:18px;fill:#636e7b;font-family:Phosphate-Solid, Phosphate;letter-spacing:0.1em;}</style></defs><rect class="cls-1" x="57.16" y="7.32" width="6.29" height="6.29" transform="translate(91.54 58.84) rotate(-135)"/><rect class="cls-2" x="58.44" y="8.6" width="3.71" height="3.71" transform="translate(91.54 58.83) rotate(-135)"/><polygon class="cls-3" points="56.3 13.25 56.3 11.42 58.93 8.79 60.75 8.8 56.3 13.25"/><polygon class="cls-4" points="53.67 8.79 51.85 8.8 56.3 13.25 56.3 11.42 53.67 8.79"/><polygon class="cls-1" points="56.3 8.79 57.61 10.11 56.3 11.42 56.3 8.79"/><rect class="cls-4" x="60.69" y="9.53" width="1.86" height="1.86" transform="translate(6.65 44.97) rotate(-45)"/><polyline class="cls-1" points="56.3 11.42 56.3 8.79 54.99 10.11"/><polygon class="cls-4" points="50.77 10.35 54.75 14.33 50.77 14.33 50.77 10.35"/><polygon class="cls-1" points="54.83 3.35 50.85 7.33 50.85 3.35 54.83 3.35"/><text class="cls-5" transform="translate(0 15)">РУСИ</text></svg>