<?xml version="1.0" encoding="utf-8"?>
<!-- Generator: Adobe Illustrator 25.2.0, SVG Export Plug-In . SVG Version: 6.00 Build 0)  -->
<svg version="1.1" id="Слой_1" xmlns="http://www.w3.org/2000/svg" xmlns:xlink="http://www.w3.org/1999/xlink" x="0px" y="0px"
	 viewBox="0 0 18 17" style="enable-background:new 0 0 18 17;" xml:space="preserve">
<style type="text/css">
	.st0{clip-path:url(#SVGID_2_);}
	.st1{clip-path:url(#SVGID_4_);}
	.st2{clip-path:url(#SVGID_6_);}
	.st3{fill:none;stroke:#00B956;stroke-width:2;stroke-linecap:round;stroke-linejoin:round;}
</style>
<g>
	<defs>
		<rect id="SVGID_1_" x="0.5" y="0.5" width="17" height="16"/>
	</defs>
	<clipPath id="SVGID_2_">
		<use xlink:href="#SVGID_1_"  style="overflow:visible;"/>
	</clipPath>
	<g class="st0">
		<defs>
			<rect id="SVGID_3_" x="0.5" y="1.5" width="16" height="16"/>
		</defs>
		<clipPath id="SVGID_4_">
			<use xlink:href="#SVGID_3_"  style="overflow:visible;"/>
		</clipPath>
		<g class="st1">
			<defs>
				<rect id="SVGID_5_" x="0.94" y="1.38" width="15" height="15"/>
			</defs>
			<clipPath id="SVGID_6_">
				<use xlink:href="#SVGID_5_"  style="overflow:visible;"/>
			</clipPath>
			<g class="st2">
				<path class="st3" d="M15.31,14.5v-1.25c0-0.55-0.18-1.09-0.52-1.53c-0.34-0.44-0.81-0.75-1.35-0.89"/>
				<path class="st3" d="M11.56,14.5v-1.25c0-0.66-0.26-1.3-0.73-1.77c-0.47-0.47-1.1-0.73-1.77-0.73h-5c-0.66,0-1.3,0.26-1.77,0.73
					c-0.47,0.47-0.73,1.1-0.73,1.77v1.25"/>
				<path class="st3" d="M10.94,3.33c0.54,0.14,1.01,0.45,1.35,0.89c0.34,0.44,0.53,0.98,0.53,1.53c0,0.56-0.18,1.09-0.53,1.53
					c-0.34,0.44-0.82,0.75-1.35,0.89"/>
				<path class="st3" d="M6.56,8.25c1.38,0,2.5-1.12,2.5-2.5s-1.12-2.5-2.5-2.5s-2.5,1.12-2.5,2.5S5.18,8.25,6.56,8.25z"/>
			</g>
		</g>
	</g>
</g>
</svg>
